<svg xmlns="http://www.w3.org/2000/svg" version="1.1" xmlns:xlink="http://www.w3.org/1999/xlink" xmlns:svgjs="http://svgjs.dev/svgjs" width="1000" height="623" viewBox="0 0 1000 623"><g transform="matrix(1,0,0,1,-0.6060606060606233,0.2522267206477409)"><svg viewBox="0 0 396 247" data-background-color="#ffffff" preserveAspectRatio="xMidYMid meet" height="623" width="1000" xmlns="http://www.w3.org/2000/svg" xmlns:xlink="http://www.w3.org/1999/xlink"><g id="tight-bounds" transform="matrix(1,0,0,1,0.2400000000000091,-0.09999999999999432)"><svg viewBox="0 0 395.52 247.2" height="247.2" width="395.52"><g><svg></svg></g><g><svg viewBox="0 0 395.52 247.2" height="247.2" width="395.52"><g transform="matrix(1,0,0,1,138.53697974025974,47.215199999999996)"><svg viewBox="0 0 118.4460405194805 152.7696" height="152.7696" width="118.4460405194805"><g><svg viewBox="0 0 118.4460405194805 152.7696" height="152.7696" width="118.4460405194805"><g><svg viewBox="0 0 118.4460405194805 152.7696" height="152.7696" width="118.4460405194805"><g><svg viewBox="0 0 118.4460405194805 152.7696" height="152.7696" width="118.4460405194805"><g id="textblocktransform"><svg viewBox="0 0 118.4460405194805 152.7696" height="152.7696" width="118.4460405194805" id="textblock"><g><svg viewBox="0 0 118.4460405194805 152.7696" height="152.7696" width="118.4460405194805"><g transform="matrix(1,0,0,1,0,0)"><svg width="118.4460405194805" viewBox="3.49 -36.6 29.15 37.6" height="152.7696" data-palette-color="#bb84e8"><path d="M28.81-32.86L28.81-32.86Q24.88-34.84 21-34.84L21-34.84Q17.92-34.84 15.45-33.85 12.99-32.86 11.24-30.74 9.5-28.61 8.57-25.32 7.64-22.02 7.64-17.41L7.64-17.41Q7.64-15.06 8.11-12.92 8.57-10.77 9.44-8.9 10.3-7.03 11.56-5.51 12.82-3.98 14.4-2.89 15.99-1.81 17.88-1.21 19.78-0.61 21.9-0.61L21.9-0.61Q23.44-0.61 24.69-0.76 25.95-0.9 27.08-1.28 28.2-1.66 29.3-2.33 30.4-3 31.64-4.05L31.64-4.05 32.64-2.91Q31.2-1.83 29.86-1.1 28.52-0.37 27.11 0.11 25.71 0.59 24.15 0.79 22.58 1 20.7 1L20.7 1Q16.99 1 13.83-0.34 10.67-1.68 8.37-4.14 6.08-6.59 4.79-10.07 3.49-13.55 3.49-17.8L3.49-17.8Q3.49-22.14 4.92-25.62 6.35-29.1 8.86-31.54 11.38-33.98 14.79-35.29 18.21-36.6 22.19-36.6L22.19-36.6Q27.22-36.6 31.81-34.11L31.81-34.11Q31.03-30.15 29.39-26.76L29.39-26.76 28.76-27.1Q29.05-28.88 29.05-30.64L29.05-30.64Q29.05-32.2 28.81-32.86Z" opacity="1" transform="matrix(1,0,0,1,0,0)" fill="#bb84e8" class="wordmark-text-0" data-fill-palette-color="primary" id="text-0"></path></svg></g></svg></g></svg></g></svg></g></svg></g></svg></g></svg></g><g><path d="M182.823 0c30.402 0 58.24 10.976 79.768 29.183l-11.147 0c-19.26-14.022-42.974-22.294-68.621-22.295-25.647 0-49.361 8.272-68.621 22.295l-11.147 0c21.528-18.206 49.366-29.183 79.768-29.183zM182.823 247.2c-30.402 0-58.24-10.976-79.768-29.183l11.147 0c19.26 14.022 42.974 22.294 68.621 22.295 25.647 0 49.361-8.272 68.621-22.295l11.147 0c-21.528 18.206-49.366 29.183-79.768 29.183z" fill="#bb84e8" stroke="transparent" data-fill-palette-color="tertiary"></path></g></svg></g><defs></defs></svg><rect width="395.52" height="247.2" fill="none" stroke="none" visibility="hidden"></rect></g></svg></g></svg>